<svg  width="1080"  viewBox="0 0 810 809.999993" height="1080" preserveAspectRatio="xMidYMid meet" version="1.0"><path fill="#ffffff" d="M 324 337.5 L 391.5 337.5 C 392.386719 337.5 393.265625 337.585938 394.132812 337.757812 C 395.003906 337.933594 395.847656 338.1875 396.667969 338.527344 C 397.484375 338.867188 398.261719 339.28125 399 339.773438 C 399.738281 340.269531 400.417969 340.828125 401.046875 341.453125 C 401.671875 342.082031 402.230469 342.761719 402.726562 343.5 C 403.21875 344.238281 403.632812 345.015625 403.972656 345.832031 C 404.3125 346.652344 404.566406 347.496094 404.742188 348.367188 C 404.914062 349.234375 405 350.113281 405 351 C 405 351.886719 404.914062 352.765625 404.742188 353.632812 C 404.566406 354.503906 404.3125 355.347656 403.972656 356.167969 C 403.632812 356.984375 403.21875 357.761719 402.726562 358.5 C 402.230469 359.238281 401.671875 359.917969 401.046875 360.546875 C 400.417969 361.171875 399.738281 361.730469 399 362.226562 C 398.261719 362.71875 397.484375 363.132812 396.667969 363.472656 C 395.847656 363.8125 395.003906 364.066406 394.132812 364.242188 C 393.265625 364.414062 392.386719 364.5 391.5 364.5 L 324 364.5 C 323.113281 364.5 322.234375 364.414062 321.367188 364.242188 C 320.496094 364.066406 319.652344 363.8125 318.832031 363.472656 C 318.015625 363.132812 317.238281 362.71875 316.5 362.226562 C 315.761719 361.730469 315.082031 361.171875 314.453125 360.546875 C 313.828125 359.917969 313.269531 359.238281 312.773438 358.5 C 312.28125 357.761719 311.867188 356.984375 311.527344 356.167969 C 311.1875 355.347656 310.933594 354.503906 310.757812 353.632812 C 310.585938 352.765625 310.5 351.886719 310.5 351 C 310.5 350.113281 310.585938 349.234375 310.757812 348.367188 C 310.933594 347.496094 311.1875 346.652344 311.527344 345.832031 C 311.867188 345.015625 312.28125 344.238281 312.773438 343.5 C 313.269531 342.761719 313.828125 342.082031 314.453125 341.453125 C 315.082031 340.828125 315.761719 340.269531 316.5 339.773438 C 317.238281 339.28125 318.015625 338.867188 318.832031 338.527344 C 319.652344 338.1875 320.496094 337.933594 321.367188 337.757812 C 322.234375 337.585938 323.113281 337.5 324 337.5 Z M 418.5 445.5 L 486 445.5 C 486.886719 445.5 487.765625 445.585938 488.632812 445.757812 C 489.503906 445.933594 490.347656 446.1875 491.167969 446.527344 C 491.984375 446.867188 492.761719 447.28125 493.5 447.773438 C 494.238281 448.269531 494.917969 448.828125 495.546875 449.453125 C 496.171875 450.082031 496.730469 450.761719 497.226562 451.5 C 497.71875 452.238281 498.132812 453.015625 498.472656 453.832031 C 498.8125 454.652344 499.066406 455.496094 499.242188 456.367188 C 499.414062 457.234375 499.5 458.113281 499.5 459 C 499.5 459.886719 499.414062 460.765625 499.242188 461.632812 C 499.066406 462.503906 498.8125 463.347656 498.472656 464.167969 C 498.132812 464.984375 497.71875 465.761719 497.226562 466.5 C 496.730469 467.238281 496.171875 467.917969 495.546875 468.546875 C 494.917969 469.171875 494.238281 469.730469 493.5 470.226562 C 492.761719 470.71875 491.984375 471.132812 491.167969 471.472656 C 490.347656 471.8125 489.503906 472.066406 488.632812 472.242188 C 487.765625 472.414062 486.886719 472.5 486 472.5 L 418.5 472.5 C 417.613281 472.5 416.734375 472.414062 415.867188 472.242188 C 414.996094 472.066406 414.152344 471.8125 413.332031 471.472656 C 412.515625 471.132812 411.738281 470.71875 411 470.226562 C 410.261719 469.730469 409.582031 469.171875 408.953125 468.546875 C 408.328125 467.917969 407.769531 467.238281 407.273438 466.5 C 406.78125 465.761719 406.367188 464.984375 406.027344 464.167969 C 405.6875 463.347656 405.433594 462.503906 405.257812 461.632812 C 405.085938 460.765625 405 459.886719 405 459 C 405 458.113281 405.085938 457.234375 405.257812 456.367188 C 405.433594 455.496094 405.6875 454.652344 406.027344 453.832031 C 406.367188 453.015625 406.78125 452.238281 407.273438 451.5 C 407.769531 450.761719 408.328125 450.082031 408.953125 449.453125 C 409.582031 448.828125 410.261719 448.269531 411 447.773438 C 411.738281 447.28125 412.515625 446.867188 413.332031 446.527344 C 414.152344 446.1875 414.996094 445.933594 415.867188 445.757812 C 416.734375 445.585938 417.613281 445.5 418.5 445.5 Z M 324 391.5 L 486 391.5 C 486.886719 391.5 487.765625 391.585938 488.632812 391.757812 C 489.503906 391.933594 490.347656 392.1875 491.167969 392.527344 C 491.984375 392.867188 492.761719 393.28125 493.5 393.773438 C 494.238281 394.269531 494.917969 394.828125 495.546875 395.453125 C 496.171875 396.082031 496.730469 396.761719 497.226562 397.5 C 497.71875 398.238281 498.132812 399.015625 498.472656 399.832031 C 498.8125 400.652344 499.066406 401.496094 499.242188 402.367188 C 499.414062 403.234375 499.5 404.113281 499.5 405 C 499.5 405.886719 499.414062 406.765625 499.242188 407.632812 C 499.066406 408.503906 498.8125 409.347656 498.472656 410.167969 C 498.132812 410.984375 497.71875 411.761719 497.226562 412.5 C 496.730469 413.238281 496.171875 413.917969 495.546875 414.546875 C 494.917969 415.171875 494.238281 415.730469 493.5 416.226562 C 492.761719 416.71875 491.984375 417.132812 491.167969 417.472656 C 490.347656 417.8125 489.503906 418.066406 488.632812 418.242188 C 487.765625 418.414062 486.886719 418.5 486 418.5 L 324 418.5 C 323.113281 418.5 322.234375 418.414062 321.367188 418.242188 C 320.496094 418.066406 319.652344 417.8125 318.832031 417.472656 C 318.015625 417.132812 317.238281 416.71875 316.5 416.226562 C 315.761719 415.730469 315.082031 415.171875 314.453125 414.546875 C 313.828125 413.917969 313.269531 413.238281 312.773438 412.5 C 312.28125 411.761719 311.867188 410.984375 311.527344 410.167969 C 311.1875 409.347656 310.933594 408.503906 310.757812 407.632812 C 310.585938 406.765625 310.5 405.886719 310.5 405 C 310.5 404.113281 310.585938 403.234375 310.757812 402.367188 C 310.933594 401.496094 311.1875 400.652344 311.527344 399.832031 C 311.867188 399.015625 312.28125 398.238281 312.773438 397.5 C 313.269531 396.761719 313.828125 396.082031 314.453125 395.453125 C 315.082031 394.828125 315.761719 394.269531 316.5 393.773438 C 317.238281 393.28125 318.015625 392.867188 318.832031 392.527344 C 319.652344 392.1875 320.496094 391.933594 321.367188 391.757812 C 322.234375 391.585938 323.113281 391.5 324 391.5 Z M 324 391.5 " /></svg>